# Exported from Wings 3D 0.98.26b
mtllib cube.mtl
o cube1
#8 vertices, 6 faces
v -2.0 -2.0 2.0
v -2.0 2.0 2.0
v 2.0 2.0 2.0
v 2.0 -2.0 2.0
v -2.0 -2.0 -2.0
v -2.0 2.0 -2.0
v 2.0 2.0 -2.0
v 2.0 -2.0 -2.0
vn -0.57735027 -0.57735027 0.57735027
vn -0.57735027 0.57735027 0.57735027
vn 0.57735027 0.57735027 0.57735027
vn 0.57735027 -0.57735027 0.57735027
vn -0.57735027 -0.57735027 -0.57735027
vn -0.57735027 0.57735027 -0.57735027
vn 0.57735027 0.57735027 -0.57735027
vn 0.57735027 -0.57735027 -0.57735027

vt 0.25 1.0
vt 0.5 1.0  

vt 0.0 0.67
vt 0.25 0.67
vt 0.5 0.67
vt 0.75 0.67
vt 1.0 0.67

vt 0.0 0.33
vt 0.25 0.33
vt 0.5 0.33
vt 0.75 0.33
vt 1.0 0.33

vt 0.25 0.0
vt 0.5 0.0

g cube1_default
usemtl default
f 3/6/3 2/7/2 1/12/1 4/11/4
f 5/9/5 1/8/1 2/3/2 6/4/6
f 6/4/6 2/1/2 3/2/3 7/5/7
f 7/5/7 3/6/3 4/11/4 8/10/8
f 8/10/8 5/9/5 6/4/6 7/5/7
f 8/19/8 4/14/4 1/13/1 5/9/5
